<svg width="144" height="24" viewBox="0 0 144 24" fill="none" xmlns="http://www.w3.org/2000/svg">
<path d="M18.8432 0.0052417C20.4671 -0.0759507 22.0909 0.786492 22.6281 2.56461C22.7862 4.01705 22.7076 14.0218 22.7076 14.0218C21.2383 25.2714 7.02664 26.7085 1.46777 19.8442C-0.235586 17.2731 -0.687046 15.328 1.36175 13.4453C3.41055 11.5625 6.48595 12.5008 7.78908 15.0349C8.69554 17.0196 15.1335 17.0574 14.7871 10.3906C14.6317 4.60344 13.9982 0.0765106 18.8432 0.0052417Z" fill="#109F51"/>
<path d="M38.5305 1.34449e-07C36.1957 0.000533005 33.9136 0.704678 31.9725 2.02342C30.0314 3.34216 28.5186 5.21628 27.6254 7.40883C26.7321 9.60138 26.4985 12.0139 26.954 14.3414C27.4096 16.6689 28.5339 18.8069 30.1847 20.485C31.8356 22.1631 33.9389 23.306 36.2287 23.7692C38.5185 24.2324 40.8921 23.9951 43.0492 23.0873C45.2064 22.1795 47.0503 20.642 48.3479 18.6692C49.6455 16.6963 50.3384 14.3767 50.3391 12.0036C50.3395 10.4272 50.0343 8.86625 49.441 7.4098C48.8476 5.95336 47.9779 4.62999 46.8813 3.5153C45.7847 2.4006 44.4828 1.51642 43.0499 0.913256C41.6171 0.310091 40.0813 -0.000235816 38.5305 1.34449e-07ZM38.6913 7.47497C39.5406 7.47497 40.371 7.73098 41.0772 8.21063C41.7835 8.69029 42.3339 9.37203 42.659 10.1697C42.984 10.9673 43.0691 11.845 42.9034 12.6918C42.7376 13.5385 42.3286 14.3163 41.728 14.9268C41.1274 15.5373 40.3622 15.953 39.5291 16.1215C38.696 16.2899 37.8325 16.2034 37.0478 15.8731C36.263 15.5427 35.5923 14.9832 35.1204 14.2653C34.6485 13.5475 34.3966 12.7035 34.3966 11.8402C34.3966 10.6824 34.8491 9.57213 35.6545 8.7535C36.4599 7.93487 37.5523 7.47497 38.6913 7.47497Z" fill="#109F51"/>
<path d="M57.8819 2.88366e-05H58.192C58.6583 -0.00187064 59.1204 0.090087 59.5516 0.2706C59.9828 0.451113 60.3746 0.716612 60.7044 1.0518C61.0342 1.38698 61.2955 1.78522 61.4733 2.22356C61.651 2.6619 61.7417 3.13168 61.7401 3.60582V20.3951C61.7416 20.8689 61.6509 21.3384 61.4733 21.7764C61.2957 22.2145 61.0346 22.6125 60.705 22.9476C60.3755 23.2826 59.9841 23.5481 59.5532 23.7287C59.1224 23.9093 58.6607 24.0015 58.1947 24H57.8846C57.4185 24.0015 56.9568 23.9093 56.526 23.7287C56.0952 23.5481 55.7037 23.2826 55.3742 22.9476C55.0447 22.6125 54.7836 22.2145 54.6059 21.7764C54.4283 21.3384 54.3376 20.8689 54.3391 20.3951V3.60582C54.3375 3.13214 54.428 2.6628 54.6054 2.22481C54.7828 1.78682 55.0437 1.38882 55.3729 1.05371C55.7022 0.718597 56.0934 0.452989 56.5239 0.272157C56.9545 0.0913252 57.416 -0.00115828 57.8819 2.88366e-05Z" fill="#109F51"/>
<path d="M69.2873 2.53383e-05C68.8211 -0.00175463 68.3592 0.0902618 67.9282 0.270772C67.4972 0.451282 67.1055 0.716721 66.7758 1.0518C66.4461 1.38687 66.1848 1.78497 66.0071 2.22314C65.8293 2.66132 65.7386 3.13093 65.7401 3.60492V20.3924C65.7397 20.866 65.8311 21.3351 66.0092 21.7728C66.1874 22.2104 66.4487 22.608 66.7782 22.9428C67.1077 23.2776 67.499 23.543 67.9295 23.7238C68.3601 23.9046 68.8215 23.9972 69.2873 23.9964H69.5948C70.061 23.9973 70.5227 23.9047 70.9536 23.7237C71.3845 23.5428 71.776 23.2771 72.1057 22.9419C72.4353 22.6067 72.6966 22.2086 72.8746 21.7705C73.0526 21.3324 73.1437 20.8628 73.1428 20.3888V13.0937L82.1163 22.6858C82.4903 23.0855 82.952 23.3896 83.4636 23.5733C83.9813 23.8549 84.5596 24.0015 85.1467 24H85.4541C85.9202 24.0008 86.3819 23.9081 86.8127 23.727C87.2435 23.546 87.6349 23.2803 87.9645 22.9451C88.294 22.61 88.5552 22.2119 88.7332 21.7739C88.9111 21.3358 89.0022 20.8664 89.0013 20.3924V3.60492C89.0022 3.13131 88.911 2.66219 88.733 2.22453C88.555 1.78687 88.2937 1.3893 87.964 1.0547C87.6344 0.720104 87.2429 0.45507 86.8122 0.27484C86.3814 0.0946101 85.9199 0.00273877 85.4541 0.00451576H85.1467C84.6809 0.00273877 84.2193 0.0946101 83.7886 0.27484C83.3578 0.45507 82.9664 0.720104 82.6367 1.0547C82.3071 1.3893 82.0457 1.78687 81.8677 2.22453C81.6897 2.66219 81.5985 3.13131 81.5995 3.60492V11.2162L72.3433 1.31334L72.3362 1.30616C72.0032 0.895902 71.5848 0.565931 71.1112 0.340058C70.6376 0.114185 70.1205 -0.00195209 69.5974 2.53383e-05H69.29H69.2873Z" fill="#109F51"/>
<path d="M104.517 0C103.878 0.0199998 103.257 0.215664 102.72 0.566022C102.183 0.916381 101.75 1.40822 101.468 1.98882L93.3743 18.6638C93.1664 19.0859 93.0426 19.5454 93.01 20.016C92.9774 20.4866 93.0366 20.9591 93.1843 21.4066C93.332 21.854 93.5652 22.2675 93.8707 22.6236C94.1761 22.9797 94.5478 23.2714 94.9646 23.4819L95.2437 23.6161C95.6597 23.8284 96.113 23.9553 96.5775 23.9895C97.0421 24.0237 97.5087 23.9645 97.9506 23.8154C98.3925 23.6662 98.8009 23.4301 99.1524 23.1205C99.5039 22.8109 99.7915 22.4339 99.9987 22.0113L102.045 17.8045L107.434 17.7481L109.508 22.0113C109.715 22.4341 110.002 22.8112 110.354 23.121C110.705 23.4308 111.114 23.6671 111.556 23.8163C111.998 23.9656 112.465 24.0248 112.929 23.9906C113.394 23.9564 113.847 23.8294 114.263 23.617L114.543 23.4828C114.96 23.2723 115.332 22.9806 115.637 22.6245C115.943 22.2684 116.176 21.8549 116.324 21.4075C116.471 20.96 116.531 20.4875 116.498 20.0169C116.465 19.5463 116.342 19.0868 116.134 18.6647L108.04 1.98972C107.74 1.37268 107.269 0.857114 106.685 0.505416C106.101 0.153718 105.43 -0.0190412 104.751 0.00805248C104.672 0.00164252 104.593 -0.000743371 104.513 0.000895933L104.517 0Z" fill="#109F51"/>
<path d="M124.054 2.52934e-05C123.588 -0.00175169 123.127 0.0901197 122.696 0.27035C122.265 0.45058 121.874 0.715614 121.544 1.05021C121.214 1.38481 120.953 1.78238 120.775 2.22004C120.597 2.6577 120.506 3.12682 120.507 3.60043V20.3924C120.506 20.8663 120.597 21.3358 120.775 21.7739C120.953 22.2119 121.214 22.61 121.544 22.9452C121.873 23.2803 122.265 23.546 122.695 23.7271C123.126 23.9081 123.588 24.0008 124.054 24H124.361C124.828 24.0009 125.289 23.9083 125.72 23.7273C126.151 23.5463 126.543 23.2807 126.872 22.9455C127.202 22.6103 127.463 22.2122 127.641 21.7741C127.819 21.336 127.91 20.8664 127.909 20.3924V13.0937L136.883 22.6849C137.257 23.0846 137.719 23.3887 138.23 23.5724C138.748 23.8536 139.326 24.0002 139.913 23.9991H140.221C140.687 23.9999 141.149 23.9072 141.579 23.7262C142.01 23.5451 142.402 23.2794 142.731 22.9443C143.061 22.6091 143.322 22.211 143.5 21.773C143.678 21.3349 143.769 20.8654 143.768 20.3915V3.59953C143.769 3.12599 143.678 2.65697 143.499 2.21941C143.321 1.78185 143.06 1.3844 142.73 1.0499C142.401 0.715391 142.009 0.450436 141.579 0.270262C141.148 0.090088 140.686 -0.00175119 140.221 2.52934e-05H139.913C139.448 -0.00175119 138.986 0.090088 138.555 0.270262C138.125 0.450436 137.733 0.715391 137.404 1.0499C137.074 1.3844 136.813 1.78185 136.635 2.21941C136.457 2.65697 136.365 3.12599 136.366 3.59953V11.2118L127.106 1.31335L127.099 1.30616C126.766 0.895908 126.348 0.565936 125.874 0.340064C125.401 0.114191 124.884 -0.00195214 124.36 2.52934e-05H124.053H124.054Z" fill="#109F51"/>
</svg>
